{"title":"Diary.of.a.Wimpy.Kid.Roderick.Rules.2011.BRRip.AC3-HDLiTE","uid":6480091,"size":1958425059,"categoryP":"video","categoryS":"movies","magnet":"?xt=urn:btih:02ebb8b6dc99b8d0535aa28d109b6833c615815d&amp;dn=Diary.of.a.Wimpy.Kid.Roderick.Rules.2011.BRRip.AC3-HDLiTE&amp;tr=udp%3A%2F%2Ftracker.openbittorrent.com%3A80&amp;tr=udp%3A%2F%2Fopen.demonii.com%3A1337&amp;tr=udp%3A%2F%2Ftracker.coppersurfer.tk%3A6969&amp;tr=udp%3A%2F%2Fexodus.desync.com%3A6969","seeders":0,"leechers":0,"uploader":"Test_Verify","files":4,"time":1308481478,"description":"ooooo   ooooo oooooooooo.   ooooo         o8o  ooooooooooooo oooooooooooo\n`888'   `888' `888'   `Y8b  `888'         `&quot;'  8'   888   `8 `888'     `8\n888     888   888      888  888         oooo       888       888\n888ooooo888   888      888  888         `888       888       888oooo8\n888     888   888      888  888          888       888       888    &quot;\n888     888   888     d88'  888       o  888       888       888       o\no888o   o888o o888bood8P'   o888ooooood8 o888o     o888o     o888ooooood8\n\nDiary.of.a.Wimpy.Kid.Roderick.Rules.2011.BRRip.AC3-HDLiTE\n\nGeneral:\n\nFormat                           : Matroska\nDXVA Compatible                  : Yes\nFile size                        : 1.81 GiB\nDuration                         : 1h 39mn\nOverall bit rate                 : 2 599 Kbps\nEncoded By                       : Deaftone\nSource                           : BluRay.1080p.DTS.x264-CHD\nIMDB                             : http://www.imdb.com/title/tt1650043/\n\nVideo\nID                               : 1\nFormat                           : AVC\nFormat/Info                      : Advanced Video Codec\nFormat profile                   : &lt;a class=&quot;__cf_email__&quot; href=&quot;/cdn-cgi/l/email-protection&quot; data-cfemail=&quot;145c7d737c5458203a25&quot;&gt;[email&amp;#160;protected]&lt;/a&gt;&lt;script cf-hash='f9e31' type=&quot;text/javascript&quot;&gt;\n/* &lt;![CDATA[ */!function(){try{var t=&quot;currentScript&quot;in document?document.currentScript:function(){for(var t=document.getElementsByTagName(&quot;script&quot;),e=t.length;e--;)if(t[e].getAttribute(&quot;cf-hash&quot;))return t[e]}();if(t&amp;&amp;t.previousSibling){var e,r,n,i,c=t.previousSibling,a=c.getAttribute(&quot;data-cfemail&quot;);if(a){for(e=&quot;&quot;,r=parseInt(a.substr(0,2),16),n=2;a.length-n;n+=2)i=parseInt(a.substr(n,2),16)^r,e+=String.fromCharCode(i);e=document.createTextNode(e),c.parentNode.replaceChild(e,c)}}}catch(u){}}();/* ]]&gt; */&lt;/script&gt;\nFormat settings, CABAC           : Yes\nFormat settings, ReFrames        : 5 frames\nCodec ID                         : V_MPEG4/ISO/AVC\nDuration                         : 1h 39mn\nBit rate                         : 2 150 Kbps\nWidth                            : 1 280 pixels\nHeight                           : 544 pixels\nDisplay aspect ratio             : 2.35:1\nFrame rate                       : 23.976 fps\nColor space                      : YUV\nChroma subsampling               : 4:2:0\nBit depth                        : 8 bits\nScan type                        : Progressive\nBits/(Pixel*Frame)               : 0.129\nStream size                      : 1.46 GiB (81%)\nWriting library                  : x264 core 112 r1834 a51816a\n\nAudio\nID                               : 2\nFormat                           : AC-3\nFormat/Info                      : Audio Coding 3\nMode extension                   : CM (complete main)\nCodec ID                         : A_AC3\nDuration                         : 1h 39mn\nBit rate mode                    : Constant\nBit rate                         : 448 Kbps\nChannel(s)                       : 6 channels\nChannel positions                : Front: L C R, Side: L R, LFE\nSampling rate                    : 48.0 KHz\nBit depth                        : 16 bits\nCompression mode                 : Lossy\nStream size                      : 319 MiB (17%)\nLanguage                         : English\n\nSubtitles:                       : Ro","torrent":{"xt":"urn:btih:02ebb8b6dc99b8d0535aa28d109b6833c615815d","amp;dn":"Diary.of.a.Wimpy.Kid.Roderick.Rules.2011.BRRip.AC3-HDLiTE","amp;tr":["udp%3A%2F%2Ftracker.openbittorrent.com%3A80","udp%3A%2F%2Fopen.demonii.com%3A1337","udp%3A%2F%2Ftracker.coppersurfer.tk%3A6969","udp%3A%2F%2Fexodus.desync.com%3A6969"],"infoHash":"02ebb8b6dc99b8d0535aa28d109b6833c615815d","infoHashBuffer":{"type":"Buffer","data":[2,235,184,182,220,153,184,208,83,90,162,141,16,155,104,51,198,21,129,93]},"announce":[],"urlList":[]}}